<?xml version="1.0" encoding="UTF-8"?>
<svg xmlns="http://www.w3.org/2000/svg" viewBox="235.88 457.81 608.24 164.4">
  <defs>
    <style>
      .cls-1 {
        fill: #2b6cd9;
      }

      .cls-2 {
        fill: #fff;
      }
    </style>
  </defs>
  <rect x="235.88" y="457.81" width="608.24" height="164.4"/>
  <g id="Layer_1" data-name="Layer 1">
    <g>
      <path class="cls-2" d="M252.45,458.67v50.98h-15.98v-50.98h15.98Z"/>
      <path class="cls-2" d="M321.92,458.67v50.98h-15.91v-25.42l-7.85,25.42h-13.68l-7.85-25.42v25.42h-15.98v-50.98h19.58l11.23,30.6,10.94-30.6h19.51Z"/>
      <path class="cls-2" d="M368.58,484.92c-1.49,2.62-3.68,4.69-6.59,6.23-2.9,1.54-6.42,2.3-10.55,2.3h-6.34v16.2h-15.98v-50.98h22.32c6.24,0,11.03,1.58,14.36,4.75,3.34,3.17,5,7.42,5,12.74,0,3.22-.74,6.13-2.23,8.75ZM354.61,476.17c0-3.12-1.66-4.68-4.97-4.68h-4.54v9.36h4.54c3.31,0,4.97-1.56,4.97-4.68Z"/>
      <path class="cls-2" d="M401.48,509.65l-9.58-18.29h-.07v18.29h-15.98v-50.98h23.76c4.13,0,7.66.73,10.58,2.2,2.93,1.46,5.12,3.46,6.59,5.98,1.46,2.52,2.2,5.36,2.2,8.53,0,3.41-.95,6.43-2.84,9.07-1.9,2.64-4.62,4.54-8.17,5.69l11.09,19.51h-17.57ZM391.83,480.7h6.34c1.54,0,2.69-.35,3.46-1.04.77-.7,1.15-1.79,1.15-3.28,0-1.34-.4-2.4-1.19-3.17-.79-.77-1.93-1.15-3.42-1.15h-6.34v8.64Z"/>
      <path class="cls-2" d="M290.82,514.51l-17.14,50.98h-20.66l-17.14-50.98h16.99l10.51,35.06,10.44-35.06h16.99Z"/>
      <path class="cls-2" d="M312.41,514.51v50.98h-15.98v-50.98h15.98Z"/>
      <path class="cls-2" d="M325.47,561.71c-3.96-2.86-6.11-7.04-6.44-12.56h16.99c.24,2.93,1.54,4.39,3.89,4.39.86,0,1.6-.2,2.2-.61.6-.41.9-1.04.9-1.91,0-1.2-.65-2.17-1.94-2.92-1.3-.74-3.31-1.6-6.05-2.56-3.26-1.15-5.96-2.28-8.1-3.38-2.14-1.1-3.97-2.71-5.51-4.82-1.54-2.11-2.28-4.82-2.23-8.14,0-3.31.85-6.13,2.56-8.46,1.7-2.33,4.03-4.09,6.98-5.29,2.95-1.2,6.27-1.8,9.97-1.8,6.24,0,11.2,1.44,14.87,4.32s5.6,6.94,5.8,12.17h-17.21c-.05-1.44-.41-2.47-1.08-3.1-.67-.62-1.49-.94-2.45-.94-.67,0-1.22.23-1.66.68-.43.46-.65,1.09-.65,1.91,0,1.15.64,2.1,1.91,2.84,1.27.75,3.3,1.65,6.08,2.7,3.22,1.2,5.87,2.35,7.96,3.46,2.09,1.1,3.9,2.64,5.44,4.61,1.54,1.97,2.3,4.44,2.3,7.42s-.77,5.92-2.3,8.39c-1.54,2.47-3.77,4.4-6.7,5.8-2.93,1.39-6.41,2.09-10.44,2.09-6.1,0-11.12-1.43-15.08-4.28Z"/>
      <path class="cls-2" d="M397.29,557.78h-16.99l-2.52,7.7h-16.78l18.65-50.98h18.43l18.58,50.98h-16.85l-2.52-7.7ZM393.41,545.76l-4.61-14.18-4.61,14.18h9.22Z"/>
      <path class="cls-2" d="M454.29,514.51v12.67h-13.54v38.3h-15.98v-38.3h-13.39v-12.67h42.91Z"/>
      <path class="cls-2" d="M476.6,514.51v50.98h-15.98v-50.98h15.98Z"/>
      <path class="cls-2" d="M590.42,565.49h-15.98l-16.92-25.63v25.63h-15.98v-50.98h15.98l16.92,26.06v-26.06h15.98v50.98Z"/>
      <g>
        <path class="cls-1" d="M697.46,511.44c-8.33-5.24-17.83-7.89-28.25-7.89-8.43,0-16.3,1.78-23.41,5.3-3.91,1.94-7.53,4.27-10.82,6.99v-43.74c0-4.17-1.34-7.63-4-10.29-2.66-2.65-6.12-3.99-10.28-3.99s-7.42,1.33-10.14,3.95c-2.75,2.66-4.15,6.14-4.15,10.34v90.73c.14,11.13,2.8,21.31,7.9,30.24,5.11,8.95,12.17,16.11,20.98,21.3,8.82,5.2,18.9,7.83,29.94,7.83s21.31-2.63,30.14-7.83c8.8-5.18,15.89-12.34,21.07-21.28,5.19-8.95,7.82-19.15,7.82-30.31s-2.41-21.23-7.15-30.1c-4.76-8.88-11.37-16.03-19.64-21.23ZM696.48,562.77c0,6.29-1.4,12.04-4.17,17.1-2.79,5.1-6.44,8.99-11.16,11.88-4.68,2.87-9.89,4.26-15.93,4.26s-11.1-1.4-15.85-4.27c-4.77-2.88-8.4-6.75-11.12-11.83-2.71-5.06-4.08-10.83-4.08-17.13s1.37-12.18,4.07-17.1c2.71-4.96,6.36-8.78,11.14-11.67,4.75-2.87,9.94-4.27,15.85-4.27s11.25,1.39,15.93,4.26c4.66,2.86,8.42,6.8,11.18,11.71,2.75,4.92,4.15,10.67,4.15,17.07Z"/>
        <path class="cls-1" d="M840.26,570.43c2.52-2.43,3.86-5.62,3.86-9.25,0-3.84-.26-7.54-.76-11.1l.29-.2h-.32c-.96-6.61-2.8-12.72-5.49-18.25-4.24-8.7-10.49-15.63-18.55-20.6-8.05-4.96-17.75-7.48-28.82-7.48s-21.23,2.56-29.92,7.62c-8.7,5.06-15.61,12.15-20.53,21.07-4.9,8.87-7.38,19.21-7.38,30.74s2.63,21.74,7.82,30.62c5.2,8.9,12.49,15.98,21.66,21.03,9.13,5.03,19.67,7.57,31.33,7.57,6.52,0,13.43-1.21,20.51-3.6,7.12-2.4,13.19-5.57,18-9.38,4.23-3.23,4.95-7.05,4.8-9.68-.19-3.52-1.87-6.7-5.04-9.5-2.52-2.13-5.5-3.16-8.86-3.07-3.16.09-6.12,1.13-8.83,3.11-2.3,1.73-5.44,3.3-9.33,4.68-3.85,1.36-7.63,2.05-11.25,2.05-6.8,0-12.86-1.49-18.04-4.43-5.16-2.93-9.26-6.97-12.18-12-1.15-1.98-2.08-4.08-2.78-6.3h70.39c3.75,0,6.92-1.23,9.43-3.64ZM762.57,545.18c2.45-5.08,5.95-8.98,10.67-11.9,4.68-2.89,10.48-4.35,17.21-4.35,5.77,0,10.69,1.31,14.63,3.89,4.04,2.66,7.07,6.18,9.28,10.76.95,1.97,1.71,4.07,2.28,6.29h-55.93c.52-1.63,1.14-3.2,1.86-4.7Z"/>
      </g>
      <circle style="fill: #2b6cd9;" class="cls-1" cx="450.89" cy="483.98" r="26.17"/>
      <circle style="fill: #ffffff;" class="cls-1" cx="508.43" cy="540" r="26.17"/>
      <circle style="fill: #2b6cd9;" class="cls-1" cx="565.98" cy="596.02" r="26.17"/>
    </g>
  </g>
</svg>